PathFileType  4	(X/Y/Z) /Users/kristensteudel/Documents/NMBL_Research/BertecForceProcessing/anc_files/
DataRate	CameraRate	NumFrames	NumMarkers	Units	OrigDataRate	OrigDataStartFrame	OrigNumFrames
  200.0		  200.0		    4		     46		 mm	  200.0	      120	    477
Frame#	Time	r_knee			r_shank_antsup			r_ankle			r_calc			r_5meta			r_toe			L_knee			L_shank_antsup			L_ankle			L_calc			L_5meta			L_toe			r_sh2			r_sh3			r_sh4			L_sh2			L_sh3			r_thigh1			r_thigh2			r_thigh3			r_thigh4			r_thigh5			L_thigh1			L_thigh2			L_thigh3			L_thigh4			r.ASIS			r.PSIS			L.ASIS			L.PSIS			C7			R_Shoulder			L_Shoulder			Sternum			R_humerus			R_elbow_med			R_elbow_lat			R_forearm			R_wrist_radius			R_wrist_ulna			L_humerus			L_elbow_med			L_elbow_lat			L_forearm			L_wrist_radius			L_wrist_ulna			
		X1	Y1	Z1	X2	Y2	Z2	X3	Y3	Z3	X4	Y4	Z4	X5	Y5	Z5	X6	Y6	Z6	X7	Y7	Z7	X8	Y8	Z8	X9	Y9	Z9	X10	Y10	Z10	X11	Y11	Z11	X12	Y12	Z12	X13	Y13	Z13	X14	Y14	Z14	X15	Y15	Z15	X16	Y16	Z16	X17	Y17	Z17	X18	Y18	Z18	X19	Y19	Z19	X20	Y20	Z20	X21	Y21	Z21	X22	Y22	Z22	X23	Y23	Z23	X24	Y24	Z24	X25	Y25	Z25	X26	Y26	Z26	X27	Y27	Z27	X28	Y28	Z28	X29	Y29	Z29	X30	Y30	Z30	X31	Y31	Z31	X32	Y32	Z32	X33	Y33	Z33	X34	Y34	Z34	X35	Y35	Z35	X36	Y36	Z36	X37	Y37	Z37	X38	Y38	Z38	X39	Y39	Z39	X40	Y40	Z40	X41	Y41	Z41	X42	Y42	Z42	X43	Y43	Z43	X44	Y44	Z44	X45	Y45	Z45	X46	Y46	Z46	

120	0.60000	667.022	566.865	-149.924	557.365	510.219	-136.955	233.236	495.319	-169.656	213.218	562.525	-241.821	137.189	389.303	-136.044	160.103	335.925	-189.781	1101.351	609.833	-475.355	1171.363	518.140	-480.810	1259.022	211.673	-444.495	1215.786	181.668	-383.979	1423.164	169.542	-467.297	1455.753	211.385	-409.661	439.658	491.166	-148.305	542.597	582.268	-123.439	430.663	572.849	-149.514	1083.402	492.478	-490.688	1134.061	378.944	-469.503	841.448	731.317	-131.160	789.802	628.215	-148.657	738.163	617.777	-132.022	737.637	771.944	-106.419	692.468	666.348	-133.935	1045.817	840.928	-486.809	1116.747	722.954	-460.720	946.666	780.635	-510.969	1021.657	666.733	-478.941	923.045	1023.409	-180.685	716.291	1097.580	-242.220	901.146	1030.863	-442.318	711.433	1088.320	-348.695	853.858	1575.539	-296.801	967.506	1523.923	-137.840	845.869	1558.340	-484.071	975.436	1451.757	-356.340	966.003	1309.232	-36.826	837.377	1186.521	-24.268	884.904	1221.938	47.644	1021.590	1235.609	-68.521	1096.798	1238.215	-146.117	1105.818	1193.601	-126.053	641.713	1447.796	-545.854	513.303	1408.309	-457.513	530.849	1453.173	-536.720	595.116	1304.328	-581.308	684.519	1214.648	-565.293	617.033	1192.667	-584.865
121	0.60500	677.234	563.457	-149.279	566.291	512.080	-137.417	241.684	515.862	-170.453	224.906	583.903	-242.809	141.162	415.037	-135.970	160.232	360.047	-190.288	1094.056	600.556	-477.252	1163.791	511.722	-481.931	1257.109	206.772	-443.386	1215.472	177.155	-381.635	1421.379	165.268	-467.934	1454.508	208.469	-411.532	447.602	499.708	-148.467	555.874	585.099	-124.353	443.052	581.636	-149.398	1076.949	483.156	-489.254	1129.207	371.729	-468.067	847.502	730.528	-131.290	797.830	626.162	-148.023	746.463	615.171	-130.901	743.219	769.031	-105.530	699.986	662.746	-133.503	1040.920	830.253	-486.341	1106.303	709.244	-461.578	939.609	774.565	-513.646	1010.270	658.321	-476.864	923.892	1023.920	-180.355	716.404	1096.611	-242.876	901.350	1030.543	-442.317	711.489	1086.882	-348.567	856.150	1575.822	-297.593	966.304	1523.855	-138.354	848.618	1555.658	-485.924	976.129	1450.383	-355.941	960.471	1309.930	-34.813	827.951	1190.332	-24.083	876.187	1224.517	48.219	1014.883	1229.830	-65.985	1092.324	1227.822	-142.336	1098.424	1182.902	-121.899	645.312	1442.037	-546.516	517.883	1399.519	-457.637	534.292	1444.598	-537.233	600.203	1296.209	-581.338	691.588	1207.825	-565.306	623.685	1185.072	-584.590
122	0.61000	688.038	558.791	-149.319	575.655	512.680	-137.849	252.368	535.355	-171.463	238.386	604.206	-243.800	147.863	439.396	-136.237	167.323	384.093	-190.426	1087.289	594.054	-478.200	1155.484	504.299	-483.388	1252.259	200.422	-442.051	1212.215	173.170	-378.371	1416.074	156.644	-467.712	1450.319	202.190	-414.007	456.605	507.222	-149.186	569.290	585.788	-125.326	456.697	589.343	-149.198	1069.000	474.474	-486.940	1122.879	364.867	-465.830	854.077	729.638	-130.669	806.525	624.060	-147.647	755.395	612.013	-129.591	749.068	765.908	-104.979	707.910	658.650	-132.931	1035.244	819.910	-485.664	1097.437	697.110	-464.101	932.449	768.730	-516.365	1000.556	652.141	-476.298	924.674	1024.084	-179.913	716.562	1095.452	-243.014	901.785	1029.884	-442.135	711.228	1085.388	-348.460	858.219	1575.290	-298.762	965.067	1523.387	-138.540	851.345	1552.380	-488.183	976.885	1448.697	-355.478	954.361	1310.349	-32.318	818.716	1193.706	-23.942	866.894	1226.974	48.472	1007.783	1223.578	-63.183	1086.937	1216.424	-137.809	1089.967	1171.077	-117.145	648.982	1435.076	-547.747	522.998	1389.646	-458.351	537.825	1434.841	-538.659	605.766	1287.079	-581.698	698.820	1200.328	-565.525	631.258	1176.543	-584.414
123	0.61500	699.270	554.058	-149.108	585.649	512.882	-137.642	264.855	553.667	-172.692	253.555	623.416	-244.825	157.080	462.305	-136.818	173.604	405.511	-190.941	1080.140	589.569	-478.845	1145.812	496.204	-484.915	1244.328	193.277	-441.462	1205.523	169.422	-375.194	1407.685	144.188	-467.263	1443.289	192.699	-416.875	466.570	513.858	-150.277	583.096	586.176	-124.820	470.794	596.139	-148.699	1059.803	465.922	-483.501	1115.083	358.137	-462.942	861.111	728.257	-130.695	815.952	622.214	-147.715	764.938	608.610	-128.710	755.347	762.390	-104.945	716.484	654.169	-132.403	1028.504	810.697	-485.431	1089.915	687.339	-466.507	924.699	762.835	-518.783	991.349	646.490	-476.085	925.450	1023.888	-179.816	716.689	1093.647	-243.179	901.891	1028.687	-441.887	710.488	1083.072	-347.898	859.791	1575.174	-300.955	963.496	1522.671	-138.489	854.131	1548.586	-490.352	977.724	1446.742	-354.925	947.546	1310.089	-30.571	808.998	1196.821	-24.525	857.196	1229.194	48.468	1000.416	1216.380	-60.225	1080.839	1203.711	-132.839	1080.792	1158.542	-111.829	653.044	1426.669	-549.511	527.801	1379.198	-459.612	541.798	1424.197	-540.738	611.940	1276.948	-582.511	706.701	1192.147	-565.520	639.527	1167.055	-584.382
